<svg fill="#f4eeea" viewBox="0 0 53 77" xmlns="http://www.w3.org/2000/svg"><clipPath id="logo_svg__a"><path d="M0 0h53v77H0z"/></clipPath><g clip-path="url(#logo_svg__a)" fill="#f4eeea"><path d="M.01 37.977c-.053-2.965.084-5.93.412-8.875.32-2.997.918-5.955 1.785-8.834.78-2.545 1.785-4.988 3.102-7.285C7.785 8.664 11.093 5.24 15.38 2.913 19.615.606 24.132-.307 28.89.091c3.521.292 6.82 1.336 9.864 3.216 2.27 1.4 4.212 3.205 5.9 5.322a30.85 30.85 0 0 1 3.826 6.232c1.237 2.649 2.152 5.423 2.836 8.282.875 3.652 1.36 7.358 1.563 11.109.233 4.232.13 8.477-.308 12.692-.397 3.815-1.102 7.56-2.283 11.198-1.133 3.48-2.656 6.751-4.839 9.65-1.602 2.131-3.47 3.967-5.673 5.418-4.191 2.758-8.8 3.872-13.704 3.782-3.81-.07-7.454-.918-10.866-2.728-3.908-2.074-6.915-5.159-9.214-9.028C3.93 61.77 2.6 57.995 1.672 54.05.861 50.604.423 47.1.197 43.567c-.117-1.86-.129-3.727-.188-5.59zm3.524-.764c.064 4.212.2 7.422.634 10.617.389 2.853.89 5.677 1.774 8.413 1.14 3.534 2.595 6.892 4.936 9.767 2.172 2.665 4.768 4.7 7.93 5.874 4.578 1.702 9.22 1.892 13.925.569 4.186-1.189 7.547-3.637 10.152-7.255 1.951-2.71 3.276-5.733 4.254-8.943 1.359-4.462 2.023-9.047 2.24-13.709.255-5.389 0-10.746-.989-16.054-.53-2.832-1.25-5.604-2.347-8.258-1.198-2.906-2.67-5.64-4.728-7.993-1.942-2.217-4.2-3.965-6.886-5.058C29.405 3.14 24.34 3.179 19.311 5.11c-3.934 1.51-7.146 4.105-9.625 7.637-1.862 2.672-3.223 5.615-4.144 8.78a46.458 46.458 0 0 0-1.8 10.285c-.124 2.13-.166 4.26-.208 5.401z"/><path d="M33.816 62.531c.23 0 .47.008.71 0 1.18-.044 1.896-.73 2.012-1.949a14.6 14.6 0 0 0 .072-1.444c-.009-2.24-.03-4.48-.049-6.72 0-.157.01-.315 0-.492H27.77a.512.512 0 0 0 0 .15c.014 2.762.018 5.525.067 8.286.023 1.368.647 1.98 1.96 2.074.268.02.54 0 .838 0v.84h-8.483v-.74h.633c1.332-.03 2.104-.79 2.115-2.183.024-2.493.016-4.986 0-7.48-.018-3.46-.045-6.92-.08-10.38-.014-1.378-.63-2.005-1.957-2.041-.156-.004-.311.005-.466 0-.088 0-.176.012-.288 0v-.69h8.448v.694c-.315.021-.633-.023-.95 0-1.166.084-1.764.656-1.825 1.876-.045.91-.012 1.822-.012 2.733v4.506c0 .119-.008.236 0 .38h8.791c.006-.125 0-.251 0-.381-.023-2.35.034-4.695 0-7.041-.021-1.451-.692-2.037-2.09-2.073-.23-.006-.459 0-.71 0v-.69h8.285v.69c-.35 0-.692.01-1.036 0-.999-.03-1.493.593-1.685 1.527-.093.453-.096.932-.095 1.4.013 5.27.032 10.54.059 15.811-.01.562.026 1.123.104 1.679.155.941.6 1.364 1.514 1.51.392.062.794.067 1.237.101v.793h-.391c-2.522.008-5.412-.006-7.934 0z"/><path d="M9.355 50.306c.388 1.335 1.265 2.175 2.415 2.775 1.595.832 3.244 1.188 4.973.6 1.23-.42 2.191-1.213 2.441-2.64.206-1.183-.207-2.216-.947-3.088-.966-1.14-2.265-1.787-3.489-2.54-1.314-.809-2.75-1.783-4.027-2.65-1.07-.872-1.532-1.215-2.035-2.27-.916-1.923-.7-3.792.383-5.539 1.425-2.292 3.999-2.937 5.942-2.668 1.802.197 3.357 1.003 4.628 2.379.088.095.172.195.277.314l-1.348 2.014c-.232-.576-.416-1.166-.695-1.699-.503-.958-1.383-1.362-2.343-1.582-1.214-.277-2.395-.204-3.488.49-1.65 1.049-1.985 3.142-.75 4.7.7.885 1.618 1.48 2.555 2.034 1.447.86 2.932 1.65 4.376 2.518 1.36.815 2.55 1.846 3.297 3.346.84 1.688.711 3.37-.125 5.002-1.457 2.834-3.851 3.705-6.72 3.492-2.328-.173-4.358-1.193-6.238-2.59-.086-.064-.177-.236-.156-.328.205-.891.434-1.777.658-2.663l.086-.293zM38.192 29.168c-1.141-.168-2.037-.739-2.657-1.747a17.411 17.411 0 0 1-.89-1.594c-1.119-2.337-2.288-4.653-3.31-7.037l-4.37-10.38c-.182-.47-.451-1.186-.505-1.186s-.315.75-.462 1.192l-3.513 9.063a84.02 84.02 0 0 1-4.666 9.777c-.676 1.203-1.609 2.02-3.045 1.999h-.15v.57h8.927v-.587l-.549-.005a4.645 4.645 0 0 1-1.164-.262c-.415-.152-.71-.522-.708-.977 0-.265.096-.542.183-.784.524-1.454 1.072-3.067 1.61-4.515.081-.212.212-.295.443-.293 2.147.021 4.294 0 6.44 0 .239 0 .37.1.458.345.356.99.758 2.13 1.095 3.125.212.626.411 1.274.486 1.93.092.775-.219 1.138-.964 1.294a8.237 8.237 0 0 1-1.31.07c0 .234.028.42.028.659h8.967v-.595c-.15-.02-.264-.046-.374-.062zM23.476 21.14l3.058-8.09 3.128 8.09z"/></g></svg>